#!OML:ASF I:\golf\golf\golf 2\Subject 1\2002-09-07\Subject1.ASF
:FULLY-SPECIFIED
:DEGREES
239
root 2.19344 11.1403 -2.36754 14.7257 -5.13065 -2.58461
lowerback 39.6595 8.06261 4.00427
upperback 17.2864 11.1539 6.48377
thorax -0.408075 5.22995 1.06138
lowerneck -10.0523 -7.03377 -0.566686
upperneck 26.396 -6.25119 -12.4116
head 9.57949 -4.09788 -4.89124
rclavicle 8.26944e-014 1.19271e-014
rhumerus 27.3672 -2.93479 -72.4821
rradius 26.8659
rwrist -0.673345
rhand -45.1406 26.9053
rfingers 7.12502
rthumb -17.9189 -2.28925
lclavicle 8.26944e-014 1.19271e-014
lhumerus -33.3363 -41.3646 95.3133
lradius 96.7204
lwrist -26.8815
lhand -50.0258 29.9959
lfingers 7.12502
lthumb -22.6139 58.6913
rfemur -93.2239 -54.3706 39.058
rtibia 129.047
rfoot -28.4975 9.22853
rtoes -15.9431
lfemur -93.814 16.4194 -24.0298
ltibia 117.774
lfoot -28.9481 -16.6123
ltoes -9.42518
240
root 2.19129 11.0853 -2.34612 14.859 -5.28141 -2.61631
lowerback 39.4254 8.10552 3.81973
upperback 17.3141 11.1304 6.46247
thorax -0.333909 5.21275 1.15586
lowerneck -9.95143 -6.99595 -0.452221
upperneck 26.3819 -6.20096 -12.522
head 9.54799 -4.07355 -4.9376
rclavicle 3.49861e-014 4.37326e-014
rhumerus 27.2244 -2.85232 -72.7076
rradius 27.2874
rwrist -0.664859
rhand -44.7373 26.5797
rfingers 7.12502
rthumb -17.5309 -2.64991
lclavicle 3.49861e-014 4.37326e-014
lhumerus -33.6135 -41.2868 95.2901
lradius 97.3119
lwrist -26.1891
lhand -49.8006 29.0199
lfingers 7.12502
lthumb -22.3977 57.7414
rfemur -93.7772 -54.6342 39.2681
rtibia 129.574
rfoot -28.5578 9.64301
rtoes -15.6098
lfemur -94.2637 16.5666 -24.0504
ltibia 118.335
lfoot -29.0795 -16.4367
ltoes -9.78873
241
root 2.18569 11.039 -2.33063 14.7053 -5.2713 -2.73531
lowerback 39.8093 8.20835 3.78049
upperback 17.2812 11.2585 6.56686
thorax -0.516587 5.25593 1.20313
lowerneck -10.2955 -7.03366 -0.141178
upperneck 26.6376 -6.23626 -12.7303
head 9.67781 -4.09307 -5.0996
rclavicle -1.90833e-014 4.13472e-014
rhumerus 26.8771 -2.78639 -72.6125
rradius 27.9055
rwrist -0.96898
rhand -44.3234 25.5701
rfingers 7.12502
rthumb -17.1325 -3.69451
lclavicle -1.90833e-014 4.13472e-014
lhumerus -33.6924 -41.5579 95.283
lradius 97.5151
lwrist -26.1836
lhand -49.9134 29.1026
lfingers 7.12502
lthumb -22.5059 57.811
rfemur -93.8407 -55.1593 39.3222
rtibia 130.026
rfoot -28.7304 9.97645
rtoes -15.3072
lfemur -94.3658 16.7387 -23.8788
ltibia 118.868
lfoot -29.3959 -16.3047
ltoes -10.4839
242
root 2.19408 10.9894 -2.31913 14.6433 -5.42337 -2.97646
lowerback 39.9339 8.14802 3.99596
upperback 17.2911 11.2527 6.54408
thorax -0.49967 5.26173 1.07238
lowerneck -10.0099 -7.00218 -0.0505883
upperneck 26.5385 -6.18929 -12.8873
head 9.57931 -4.07102 -5.14297
rclavicle 2.22639e-014 -5.64548e-014
rhumerus 26.5425 -2.28436 -72.4115
rradius 28.471
rwrist -1.48029
rhand -44.2023 25.0625
rfingers 7.12502
rthumb -17.0159 -4.21219
lclavicle 2.22639e-014 -5.64548e-014
lhumerus -33.7089 -41.54 95.2329
lradius 97.4712
lwrist -26.7917
lhand -50.2595 29.8007
lfingers 7.12502
lthumb -22.8382 58.4685
rfemur -94.0393 -55.2401 39.4083
rtibia 130.448
rfoot -28.6587 10.0385
rtoes -15.7379
lfemur -94.6561 17.0442 -23.7355
ltibia 119.415
lfoot -29.4968 -16.3185
ltoes -10.6819
243
root 2.19951 10.9462 -2.3042 14.5525 -5.54647 -3.08291
lowerback 40.0968 8.11639 4.06071
upperback 17.2988 11.2343 6.51579
thorax -0.5217 5.25315 1.00774
lowerneck -9.87502 -6.97962 -0.0415997
upperneck 26.5456 -6.15666 -12.9108
head 9.55679 -4.05413 -5.14286
rclavicle -4.45278e-014 2.3059e-014
rhumerus 26.2812 -1.86981 -72.2842
rradius 28.8806
rwrist -1.72809
rhand -44.3685 25.2984
rfingers 7.12502
rthumb -17.1759 -3.96242
lclavicle -4.45278e-014 2.3059e-014
lhumerus -33.7773 -41.4717 95.2017
lradius 97.4715
lwrist -27.5526
lhand -50.3646 30.7238
lfingers 7.12502
lthumb -22.939 59.3792
rfemur -94.153 -55.4651 39.3466
rtibia 130.807
rfoot -28.6183 10.206
rtoes -15.9953
lfemur -94.8195 17.2492 -23.6789
ltibia 119.915
lfoot -29.4474 -16.473
ltoes -10.2154
244
root 2.18366 10.9186 -2.28468 14.2162 -5.47798 -2.97835
lowerback 40.3519 8.14365 3.82112
upperback 17.3644 11.1961 6.5922
thorax -0.58213 5.21382 1.19729
lowerneck -9.61898 -6.9775 -0.0896872
upperneck 26.5077 -6.17884 -12.8073
head 9.4984 -4.05092 -5.08416
rclavicle -3.18055e-015 8.18993e-014
rhumerus 25.9981 -1.43312 -72.1086
rradius 29.3116
rwrist -1.89804
rhand -44.5777 25.4869
rfingers 7.12502
rthumb -17.3772 -3.75633
lclavicle -3.18055e-015 8.18993e-014
lhumerus -33.9833 -41.3995 95.2202
lradius 97.5074
lwrist -28.2509
lhand -50.5081 31.5733
lfingers 7.12502
lthumb -23.0767 60.2115
rfemur -93.7709 -56.3073 38.9845
rtibia 131.135
rfoot -28.9094 10.6
rtoes -15.4824
lfemur -94.5238 17.3483 -23.6123
ltibia 120.34
lfoot -29.5934 -16.5861
ltoes -9.89692
245
root 2.18625 10.8743 -2.27738 14.1889 -5.78099 -3.06919
lowerback 40.343 8.21313 3.73489
upperback 17.3882 11.2362 6.5396
thorax -0.556501 5.22927 1.17423
lowerneck -9.24123 -6.94537 -0.0486699
upperneck 26.3416 -6.15886 -12.8439
head 9.36421 -4.03046 -5.07075
rclavicle -1.90833e-014 3.18055e-015
rhumerus 25.7041 -0.886758 -71.8912
rradius 29.8015
rwrist -2.08208
rhand -44.6457 25.203
rfingers 7.12502
rthumb -17.4427 -4.0344
lclavicle -1.90833e-014 3.18055e-015
lhumerus -34.2719 -41.3355 95.2794
lradius 97.6442
lwrist -28.4899
lhand -50.7005 31.6226
lfingers 7.12502
lthumb -23.2613 60.2376
rfemur -94.1006 -56.1916 39.0018
rtibia 131.554
rfoot -28.6596 10.7746
rtoes -14.9955
lfemur -94.8716 17.6888 -23.6592
ltibia 120.861
lfoot -29.5769 -16.4578
ltoes -9.83157
246
root 2.18667 10.8327 -2.26276 14.223 -5.89828 -3.21747
lowerback 40.3208 8.23376 3.7363
upperback 17.3853 11.257 6.54386
thorax -0.55401 5.23717 1.17233
lowerneck -9.11114 -6.90732 -0.0273086
upperneck 26.2798 -6.11741 -12.8548
head 9.31892 -4.00707 -5.0637
rclavicle 9.85972e-014 -1.35174e-014
rhumerus 25.47 -0.727898 -71.9551
rradius 30.1992
rwrist -1.80676
rhand -44.7492 25.1793
rfingers 7.12502
rthumb -17.5423 -4.04928
lclavicle 9.85972e-014 -1.35174e-014
lhumerus -34.492 -41.2994 95.3732
lradius 97.8818
lwrist -28.3568
lhand -50.6797 31.0818
lfingers 7.12502
lthumb -23.2414 59.6993
rfemur -94.4254 -56.3014 39.2286
rtibia 131.925
rfoot -28.5387 10.8812
rtoes -15.0229
lfemur -95.2396 17.9223 -23.5743
ltibia 121.354
lfoot -29.4651 -16.5993
ltoes -9.37333
247
root 2.19029 10.7938 -2.2488 14.2199 -5.79149 -3.29404
lowerback 40.3661 8.12965 3.87345
upperback 17.3737 11.1836 6.55781
thorax -0.558896 5.20744 1.14227
lowerneck -9.06154 -6.91049 -0.130811
upperneck 26.3284 -6.13227 -12.7121
head 9.33653 -4.00813 -4.99881
rclavicle -3.49861e-014 -2.38542e-015
rhumerus 25.244 -0.933503 -72.2519
rradius 30.5181
rwrist -1.18431
rhand -45.0006 25.8442
rfingers 7.12502
rthumb -17.7842 -3.36262
lclavicle -3.49861e-014 -2.38542e-015
lhumerus -34.6086 -41.3489 95.439
lradius 98.0344
lwrist -28.5752
lhand -50.7712 31.1206
lfingers 7.12502
lthumb -23.3291 59.727
rfemur -94.7742 -56.7438 39.441
rtibia 132.275
rfoot -28.5231 11.128
rtoes -14.9623
lfemur -95.5334 17.7947 -23.4323
ltibia 121.805
lfoot -29.2343 -16.7868
ltoes -8.85509
248
root 2.19103 10.7623 -2.23593 14.1203 -5.75403 -3.3911
lowerback 40.53 8.08533 3.95415
upperback 17.3612 11.1654 6.58625
thorax -0.61295 5.19705 1.12557
lowerneck -9.03279 -6.93635 -0.159325
upperneck 26.4626 -6.15858 -12.6771
head 9.37922 -4.01916 -4.99104
rclavicle -8.26944e-014 1.35174e-014
rhumerus 24.9573 -0.767462 -72.2315
rradius 30.8904
rwrist -1.08413
rhand -45.2591 26.4848
rfingers 7.12502
rthumb -18.033 -2.69926
lclavicle -8.26944e-014 1.35174e-014
lhumerus -34.8022 -41.5171 95.5215
lradius 98.0786
lwrist -29.1495
lhand -50.9547 31.7855
lfingers 7.12502
lthumb -23.5051 60.3694
rfemur -94.8463 -57.091 39.4681
rtibia 132.563
rfoot -28.554 11.2921
rtoes -15.1916
lfemur -95.6198 17.7606 -23.2556
ltibia 122.183
lfoot -29.2443 -16.6563
ltoes -9.44616
249
root 2.18868 10.7374 -2.22219 13.993 -5.84254 -3.44694
lowerback 40.7433 8.15472 3.85664
upperback 17.356 11.2206 6.61929
thorax -0.705271 5.20985 1.16918
lowerneck -9.07103 -6.93708 -0.00450924
upperneck 26.5198 -6.15076 -12.818
head 9.39339 -4.01712 -5.07045
rclavicle 1.59028e-014 -1.19271e-014
rhumerus 24.6482 -0.242419 -71.9095
rradius 31.4368
rwrist -1.57635
rhand -45.3684 26.5576
rfingers 7.12502
rthumb -18.1381 -2.61674
lclavicle 1.59028e-014 -1.19271e-014
lhumerus -35.0682 -41.6493 95.6231
lradius 98.1501
lwrist -29.6198
lhand -50.9614 31.7463
lfingers 7.12502
lthumb -23.5116 60.3294
rfemur -94.7471 -57.3165 39.3402
rtibia 132.79
rfoot -28.5695 11.3626
rtoes -15.5888
lfemur -95.625 17.8886 -23.1873
ltibia 122.521
lfoot -29.4686 -16.2737
ltoes -10.8443
250
root 2.18705 10.7131 -2.20917 13.9146 -5.93033 -3.42709
lowerback 40.6286 8.10709 3.81427
upperback 17.4214 11.1363 6.57163
thorax -0.595093 5.17382 1.18513
lowerneck -8.50729 -6.90681 0.0680675
upperneck 26.1985 -6.14702 -12.8999
head 9.16437 -3.99914 -5.05991
rclavicle -9.22361e-014 3.4191e-014
rhumerus 24.3912 0.116778 -71.877
rradius 32.0316
rwrist -2.07659
rhand -45.066 26.1426
rfingers 7.12502
rthumb -17.8471 -3.05841
lclavicle -9.22361e-014 3.4191e-014
lhumerus -35.2313 -41.6287 95.6478
lradius 98.1824
lwrist -29.8422
lhand -51.0385 31.1096
lfingers 7.12502
lthumb -23.5855 59.6832
rfemur -94.7847 -57.5755 39.1887
rtibia 133.053
rfoot -28.5464 11.5247
rtoes -15.6229
lfemur -95.727 17.9793 -23.2059
ltibia 122.87
lfoot -29.4747 -16.2369
ltoes -10.9699
251
root 2.18497 10.6873 -2.19828 13.9349 -5.95023 -3.48911
lowerback 40.6378 8.14063 3.79637
upperback 17.4009 11.1733 6.60114
thorax -0.630497 5.18721 1.20798
lowerneck -8.46582 -6.94651 0.232291
upperneck 26.3165 -6.18633 -13.0531
head 9.17943 -4.01647 -5.1481
rclavicle 1.145e-013 -5.00937e-014
rhumerus 24.1958 -0.0274278 -72.0054
rradius 32.4196
rwrist -2.39202
rhand -44.5651 25.7527
rfingers 7.12502
rthumb -17.3651 -3.49158
lclavicle 1.145e-013 -5.00937e-014
lhumerus -35.2943 -41.7899 95.6957
lradius 98.1566
lwrist -29.9151
lhand -51.3459 31.0656
lfingers 7.12502
lthumb -23.8804 59.601
rfemur -95.0198 -57.743 39.2818
rtibia 133.33
rfoot -28.4919 11.6662
rtoes -15.5185
lfemur -95.9366 18.0282 -23.1121
ltibia 123.201
lfoot -29.3003 -16.4471
ltoes -10.4025
252
root 2.18149 10.6648 -2.18813 13.874 -5.96283 -3.54945
lowerback 40.8076 8.16386 3.77399
upperback 17.3673 11.2022 6.64063
thorax -0.730095 5.19186 1.23213
lowerneck -8.51855 -6.98401 0.236152
upperneck 26.4596 -6.21919 -13.0742
head 9.23612 -4.03551 -5.17063
rclavicle 3.18055e-015 -1.74931e-014
rhumerus 24.0443 -0.164778 -72.116
rradius 32.7152
rwrist -2.59813
rhand -44.2799 25.6935
rfingers 7.12502
rthumb -17.0906 -3.57478
lclavicle 3.18055e-015 -1.74931e-014
lhumerus -35.4762 -42.0148 95.8386
lradius 98.5106
lwrist -28.8565
lhand -51.0026 30.2985
lfingers 7.12502
lthumb -23.5511 58.8766
rfemur -95.0972 -57.9842 39.3006
rtibia 133.565
rfoot -28.5191 11.8574
rtoes -15.4194
lfemur -96.0092 18.0462 -23.0026
ltibia 123.474
lfoot -29.3143 -16.2444
ltoes -10.9357
253
root 2.17823 10.6396 -2.17554 13.7917 -6.04379 -3.47089
lowerback 40.8737 8.18004 3.63301
upperback 17.3748 11.1727 6.63285
thorax -0.763032 5.16843 1.29626
lowerneck -8.25242 -6.96678 0.132893
upperneck 26.2952 -6.22049 -12.9787
head 9.13661 -4.02786 -5.09598
rclavicle 9.85972e-014 -3.10104e-014
rhumerus 23.8475 0.0262412 -72.0831
rradius 33.0616
rwrist -3.05918
rhand -44.3775 26.2201
rfingers 7.12502
rthumb -17.1846 -3.03998
lclavicle 9.85972e-014 -3.10104e-014
lhumerus -35.6019 -42.1128 95.9084
lradius 98.5283
lwrist -28.8577
lhand -51.1539 30.1593
lfingers 7.12502
lthumb -23.6962 58.7186
rfemur -95.1918 -58.2895 39.1364
rtibia 133.818
rfoot -28.5774 12.0288
rtoes -15.5943
lfemur -96.0851 18.0581 -23.1036
ltibia 123.726
lfoot -29.2817 -15.9293
ltoes -11.2807
